<svg width="248" height="77" viewBox="0 0 248 77" fill="none" xmlns="http://www.w3.org/2000/svg">
<path d="M24.85 54.97V76.03H19.72V63.4L15.01 76.03H10.87L6.13 63.37V76.03H1V54.97H7.06L12.97 69.55L18.82 54.97H24.85Z" fill="url(#paint0_linear_0_41)"/>
<path d="M31.1191 57.55C30.2191 57.55 29.4791 57.29 28.8991 56.77C28.3391 56.23 28.0591 55.57 28.0591 54.79C28.0591 53.99 28.3391 53.33 28.8991 52.81C29.4791 52.27 30.2191 52 31.1191 52C31.9991 52 32.7191 52.27 33.2791 52.81C33.8591 53.33 34.1491 53.99 34.1491 54.79C34.1491 55.57 33.8591 56.23 33.2791 56.77C32.7191 57.29 31.9991 57.55 31.1191 57.55ZM33.6691 59.29V76.03H28.5391V59.29H33.6691Z" fill="url(#paint1_linear_0_41)"/>
<path d="M44.1967 76.27C42.7367 76.27 41.4367 76.02 40.2967 75.52C39.1567 75.02 38.2567 74.34 37.5967 73.48C36.9367 72.6 36.5667 71.62 36.4867 70.54H41.5567C41.6167 71.12 41.8867 71.59 42.3667 71.95C42.8467 72.31 43.4367 72.49 44.1367 72.49C44.7767 72.49 45.2667 72.37 45.6067 72.13C45.9667 71.87 46.1467 71.54 46.1467 71.14C46.1467 70.66 45.8967 70.31 45.3967 70.09C44.8967 69.85 44.0867 69.59 42.9667 69.31C41.7667 69.03 40.7667 68.74 39.9667 68.44C39.1667 68.12 38.4767 67.63 37.8967 66.97C37.3167 66.29 37.0267 65.38 37.0267 64.24C37.0267 63.28 37.2867 62.41 37.8067 61.63C38.3467 60.83 39.1267 60.2 40.1467 59.74C41.1867 59.28 42.4167 59.05 43.8367 59.05C45.9367 59.05 47.5867 59.57 48.7867 60.61C50.0067 61.65 50.7067 63.03 50.8867 64.75H46.1467C46.0667 64.17 45.8067 63.71 45.3667 63.37C44.9467 63.03 44.3867 62.86 43.6867 62.86C43.0867 62.86 42.6267 62.98 42.3067 63.22C41.9867 63.44 41.8267 63.75 41.8267 64.15C41.8267 64.63 42.0767 64.99 42.5767 65.23C43.0967 65.47 43.8967 65.71 44.9767 65.95C46.2167 66.27 47.2267 66.59 48.0067 66.91C48.7867 67.21 49.4667 67.71 50.0467 68.41C50.6467 69.09 50.9567 70.01 50.9767 71.17C50.9767 72.15 50.6967 73.03 50.1367 73.81C49.5967 74.57 48.8067 75.17 47.7667 75.61C46.7467 76.05 45.5567 76.27 44.1967 76.27Z" fill="url(#paint2_linear_0_41)"/>
<path d="M60.9252 76.27C59.4652 76.27 58.1652 76.02 57.0252 75.52C55.8852 75.02 54.9852 74.34 54.3252 73.48C53.6652 72.6 53.2952 71.62 53.2152 70.54H58.2852C58.3452 71.12 58.6152 71.59 59.0952 71.95C59.5752 72.31 60.1652 72.49 60.8652 72.49C61.5052 72.49 61.9952 72.37 62.3352 72.13C62.6952 71.87 62.8752 71.54 62.8752 71.14C62.8752 70.66 62.6252 70.31 62.1252 70.09C61.6252 69.85 60.8152 69.59 59.6952 69.31C58.4952 69.03 57.4952 68.74 56.6952 68.44C55.8952 68.12 55.2052 67.63 54.6252 66.97C54.0452 66.29 53.7552 65.38 53.7552 64.24C53.7552 63.28 54.0152 62.41 54.5352 61.63C55.0752 60.83 55.8552 60.2 56.8752 59.74C57.9152 59.28 59.1452 59.05 60.5652 59.05C62.6652 59.05 64.3152 59.57 65.5152 60.61C66.7352 61.65 67.4352 63.03 67.6152 64.75H62.8752C62.7952 64.17 62.5352 63.71 62.0952 63.37C61.6752 63.03 61.1152 62.86 60.4152 62.86C59.8152 62.86 59.3552 62.98 59.0352 63.22C58.7152 63.44 58.5552 63.75 58.5552 64.15C58.5552 64.63 58.8052 64.99 59.3052 65.23C59.8252 65.47 60.6252 65.71 61.7052 65.95C62.9452 66.27 63.9552 66.59 64.7352 66.91C65.5152 67.21 66.1952 67.71 66.7752 68.41C67.3752 69.09 67.6852 70.01 67.7052 71.17C67.7052 72.15 67.4252 73.03 66.8652 73.81C66.3252 74.57 65.5352 75.17 64.4952 75.61C63.4752 76.05 62.2852 76.27 60.9252 76.27Z" fill="url(#paint3_linear_0_41)"/>
<path d="M73.4238 57.55C72.5238 57.55 71.7838 57.29 71.2038 56.77C70.6438 56.23 70.3637 55.57 70.3637 54.79C70.3637 53.99 70.6438 53.33 71.2038 52.81C71.7838 52.27 72.5238 52 73.4238 52C74.3037 52 75.0238 52.27 75.5837 52.81C76.1637 53.33 76.4538 53.99 76.4538 54.79C76.4538 55.57 76.1637 56.23 75.5837 56.77C75.0238 57.29 74.3037 57.55 73.4238 57.55ZM75.9737 59.29V76.03H70.8438V59.29H75.9737Z" fill="url(#paint4_linear_0_41)"/>
<path d="M87.3114 76.27C85.6714 76.27 84.1914 75.92 82.8714 75.22C81.5714 74.52 80.5414 73.52 79.7814 72.22C79.0414 70.92 78.6714 69.4 78.6714 67.66C78.6714 65.94 79.0514 64.43 79.8114 63.13C80.5714 61.81 81.6114 60.8 82.9314 60.1C84.2514 59.4 85.7314 59.05 87.3714 59.05C89.0114 59.05 90.4914 59.4 91.8114 60.1C93.1314 60.8 94.1714 61.81 94.9314 63.13C95.6914 64.43 96.0714 65.94 96.0714 67.66C96.0714 69.38 95.6814 70.9 94.9014 72.22C94.1414 73.52 93.0914 74.52 91.7514 75.22C90.4314 75.92 88.9514 76.27 87.3114 76.27ZM87.3114 71.83C88.2914 71.83 89.1214 71.47 89.8014 70.75C90.5014 70.03 90.8514 69 90.8514 67.66C90.8514 66.32 90.5114 65.29 89.8314 64.57C89.1714 63.85 88.3514 63.49 87.3714 63.49C86.3714 63.49 85.5414 63.85 84.8814 64.57C84.2214 65.27 83.8914 66.3 83.8914 67.66C83.8914 69 84.2114 70.03 84.8514 70.75C85.5114 71.47 86.3314 71.83 87.3114 71.83Z" fill="url(#paint5_linear_0_41)"/>
<path d="M108.993 59.11C110.953 59.11 112.513 59.75 113.673 61.03C114.853 62.29 115.443 64.03 115.443 66.25V76.03H110.343V66.94C110.343 65.82 110.053 64.95 109.473 64.33C108.893 63.71 108.113 63.4 107.133 63.4C106.153 63.4 105.373 63.71 104.793 64.33C104.213 64.95 103.923 65.82 103.923 66.94V76.03H98.793V59.29H103.923V61.51C104.443 60.77 105.143 60.19 106.023 59.77C106.903 59.33 107.893 59.11 108.993 59.11Z" fill="url(#paint6_linear_0_41)"/>
<path d="M134.695 71.68V76.03H132.085C130.225 76.03 128.775 75.58 127.735 74.68C126.695 73.76 126.175 72.27 126.175 70.21V63.55H124.135V59.29H126.175V55.21H131.305V59.29H134.665V63.55H131.305V70.27C131.305 70.77 131.425 71.13 131.665 71.35C131.905 71.57 132.305 71.68 132.865 71.68H134.695Z" fill="url(#paint7_linear_0_41)"/>
<path d="M145.173 76.27C143.533 76.27 142.053 75.92 140.733 75.22C139.433 74.52 138.403 73.52 137.643 72.22C136.903 70.92 136.533 69.4 136.533 67.66C136.533 65.94 136.913 64.43 137.673 63.13C138.433 61.81 139.473 60.8 140.793 60.1C142.113 59.4 143.593 59.05 145.233 59.05C146.873 59.05 148.353 59.4 149.673 60.1C150.993 60.8 152.033 61.81 152.793 63.13C153.553 64.43 153.933 65.94 153.933 67.66C153.933 69.38 153.543 70.9 152.763 72.22C152.003 73.52 150.953 74.52 149.613 75.22C148.293 75.92 146.813 76.27 145.173 76.27ZM145.173 71.83C146.153 71.83 146.983 71.47 147.663 70.75C148.363 70.03 148.713 69 148.713 67.66C148.713 66.32 148.373 65.29 147.693 64.57C147.033 63.85 146.213 63.49 145.233 63.49C144.233 63.49 143.403 63.85 142.743 64.57C142.083 65.27 141.753 66.3 141.753 67.66C141.753 69 142.073 70.03 142.713 70.75C143.373 71.47 144.193 71.83 145.173 71.83Z" fill="url(#paint8_linear_0_41)"/>
<path d="M186.862 54.97V76.03H181.732V63.4L177.022 76.03H172.882L168.142 63.37V76.03H163.012V54.97H169.072L174.982 69.55L180.832 54.97H186.862Z" fill="url(#paint9_linear_0_41)"/>
<path d="M203.661 72.31H195.801L194.541 76.03H189.171L196.791 54.97H202.731L210.351 76.03H204.921L203.661 72.31ZM202.341 68.35L199.731 60.64L197.151 68.35H202.341Z" fill="url(#paint10_linear_0_41)"/>
<path d="M223.41 76.03L219.03 68.08H217.8V76.03H212.67V54.97H221.28C222.94 54.97 224.35 55.26 225.51 55.84C226.69 56.42 227.57 57.22 228.15 58.24C228.73 59.24 229.02 60.36 229.02 61.6C229.02 63 228.62 64.25 227.82 65.35C227.04 66.45 225.88 67.23 224.34 67.69L229.2 76.03H223.41ZM217.8 64.45H220.98C221.92 64.45 222.62 64.22 223.08 63.76C223.56 63.3 223.8 62.65 223.8 61.81C223.8 61.01 223.56 60.38 223.08 59.92C222.62 59.46 221.92 59.23 220.98 59.23H217.8V64.45Z" fill="url(#paint11_linear_0_41)"/>
<path d="M239.86 76.24C238.32 76.24 236.94 75.99 235.72 75.49C234.5 74.99 233.52 74.25 232.78 73.27C232.06 72.29 231.68 71.11 231.64 69.73H237.1C237.18 70.51 237.45 71.11 237.91 71.53C238.37 71.93 238.97 72.13 239.71 72.13C240.47 72.13 241.07 71.96 241.51 71.62C241.95 71.26 242.17 70.77 242.17 70.15C242.17 69.63 241.99 69.2 241.63 68.86C241.29 68.52 240.86 68.24 240.34 68.02C239.84 67.8 239.12 67.55 238.18 67.27C236.82 66.85 235.71 66.43 234.85 66.01C233.99 65.59 233.25 64.97 232.63 64.15C232.01 63.33 231.7 62.26 231.7 60.94C231.7 58.98 232.41 57.45 233.83 56.35C235.25 55.23 237.1 54.67 239.38 54.67C241.7 54.67 243.57 55.23 244.99 56.35C246.41 57.45 247.17 58.99 247.27 60.97H241.72C241.68 60.29 241.43 59.76 240.97 59.38C240.51 58.98 239.92 58.78 239.2 58.78C238.58 58.78 238.08 58.95 237.7 59.29C237.32 59.61 237.13 60.08 237.13 60.7C237.13 61.38 237.45 61.91 238.09 62.29C238.73 62.67 239.73 63.08 241.09 63.52C242.45 63.98 243.55 64.42 244.39 64.84C245.25 65.26 245.99 65.87 246.61 66.67C247.23 67.47 247.54 68.5 247.54 69.76C247.54 70.96 247.23 72.05 246.61 73.03C246.01 74.01 245.13 74.79 243.97 75.37C242.81 75.95 241.44 76.24 239.86 76.24Z" fill="url(#paint12_linear_0_41)"/>
<mask id="path-2-outside-1_0_41" maskUnits="userSpaceOnUse" x="0" y="0" width="193" height="45" fill="black">
<rect fill="white" width="193" height="45"/>
<path d="M29.5145 18.2744C29.5145 20.4359 29.017 22.4203 28.0221 24.2274C27.0272 25.9992 25.4994 27.4343 23.4385 28.5328C21.3776 29.6312 18.8193 30.1805 15.7636 30.1805H10.114V43.5748H1V6.26205H15.7636C18.7483 6.26205 21.271 6.77586 23.3319 7.80346C25.3928 8.83107 26.9384 10.2485 27.9688 12.0556C28.9993 13.8628 29.5145 15.9357 29.5145 18.2744ZM15.0707 22.9518C16.8118 22.9518 18.1087 22.5443 18.9615 21.7293C19.8142 20.9143 20.2406 19.7627 20.2406 18.2744C20.2406 16.7862 19.8142 15.6345 18.9615 14.8195C18.1087 14.0045 16.8118 13.597 15.0707 13.597H10.114V22.9518H15.0707Z"/>
<path d="M43.3732 18.8591C44.4392 17.2291 45.7717 15.9534 47.3706 15.0321C48.9695 14.0754 50.7461 13.597 52.7004 13.597V23.2176H50.1954C47.9213 23.2176 46.2158 23.7136 45.0788 24.7058C43.9418 25.6625 43.3732 27.3634 43.3732 29.8084V43.5748H34.2593V13.9159H43.3732V18.8591Z"/>
<path d="M61.6403 10.8331C60.0414 10.8331 58.7267 10.3725 57.6963 9.45118C56.7014 8.49444 56.2039 7.32509 56.2039 5.94314C56.2039 4.52575 56.7014 3.35641 57.6963 2.43511C58.7267 1.47837 60.0414 1 61.6403 1C63.2037 1 64.4829 1.47837 65.4778 2.43511C66.5082 3.35641 67.0234 4.52575 67.0234 5.94314C67.0234 7.32509 66.5082 8.49444 65.4778 9.45118C64.4829 10.3725 63.2037 10.8331 61.6403 10.8331ZM66.1707 13.9159V43.5748H57.0567V13.9159H66.1707Z"/>
<path d="M86.1533 35.0705L92.6024 13.9159H102.303L91.7496 43.5748H80.5037L69.9507 13.9159H79.7042L86.1533 35.0705Z"/>
<path d="M104.327 28.6922C104.327 25.6448 104.895 22.9695 106.032 20.6663C107.205 18.363 108.786 16.5913 110.776 15.3511C112.766 14.1108 114.986 13.4907 117.438 13.4907C119.534 13.4907 121.364 13.9159 122.928 14.7664C124.527 15.6168 125.753 16.733 126.605 18.115V13.9159H135.719V43.5748H126.605V39.3758C125.717 40.7577 124.473 41.8739 122.874 42.7244C121.311 43.5748 119.481 44 117.385 44C114.969 44 112.766 43.3799 110.776 42.1397C108.786 40.864 107.205 39.0746 106.032 36.7713C104.895 34.4326 104.327 31.7396 104.327 28.6922ZM126.605 28.7454C126.605 26.4775 125.966 24.6881 124.687 23.377C123.443 22.0659 121.915 21.4104 120.103 21.4104C118.291 21.4104 116.745 22.0659 115.466 23.377C114.222 24.6527 113.601 26.4244 113.601 28.6922C113.601 30.96 114.222 32.7672 115.466 34.1137C116.745 35.4248 118.291 36.0803 120.103 36.0803C121.915 36.0803 123.443 35.4248 124.687 34.1137C125.966 32.8026 126.605 31.0132 126.605 28.7454Z"/>
<path d="M158.889 35.8677V43.5748H154.252C150.947 43.5748 148.371 42.7775 146.523 41.1829C144.676 39.5529 143.752 36.9131 143.752 33.2633V21.4635H140.128V13.9159H143.752V6.68727H152.866V13.9159H158.835V21.4635H152.866V33.3696C152.866 34.2555 153.079 34.8933 153.505 35.2831C153.932 35.6729 154.642 35.8677 155.637 35.8677H158.889Z"/>
<path d="M192 28.267C192 29.1174 191.947 30.0033 191.84 30.9246H171.214C171.356 32.7672 171.942 34.1846 172.973 35.1768C174.039 36.1335 175.335 36.6119 176.863 36.6119C179.137 36.6119 180.719 35.6551 181.607 33.7417H191.307C190.81 35.6906 189.904 37.4446 188.589 39.0037C187.31 40.5628 185.693 41.7853 183.739 42.6712C181.785 43.5571 179.599 44 177.183 44C174.27 44 171.676 43.3799 169.402 42.1397C167.128 40.8995 165.351 39.1277 164.072 36.8245C162.793 34.5212 162.153 31.8282 162.153 28.7454C162.153 25.6625 162.775 22.9695 164.018 20.6663C165.298 18.363 167.074 16.5913 169.348 15.3511C171.622 14.1108 174.234 13.4907 177.183 13.4907C180.061 13.4907 182.62 14.0931 184.858 15.2979C187.097 16.5027 188.838 18.2213 190.081 20.4536C191.36 22.686 192 25.2905 192 28.267ZM182.673 25.8752C182.673 24.316 182.14 23.0758 181.074 22.1545C180.008 21.2332 178.675 20.7726 177.077 20.7726C175.549 20.7726 174.252 21.2155 173.186 22.1014C172.155 22.9872 171.516 24.2452 171.267 25.8752H182.673Z"/>
</mask>
<path d="M29.5145 18.2744C29.5145 20.4359 29.017 22.4203 28.0221 24.2274C27.0272 25.9992 25.4994 27.4343 23.4385 28.5328C21.3776 29.6312 18.8193 30.1805 15.7636 30.1805H10.114V43.5748H1V6.26205H15.7636C18.7483 6.26205 21.271 6.77586 23.3319 7.80346C25.3928 8.83107 26.9384 10.2485 27.9688 12.0556C28.9993 13.8628 29.5145 15.9357 29.5145 18.2744ZM15.0707 22.9518C16.8118 22.9518 18.1087 22.5443 18.9615 21.7293C19.8142 20.9143 20.2406 19.7627 20.2406 18.2744C20.2406 16.7862 19.8142 15.6345 18.9615 14.8195C18.1087 14.0045 16.8118 13.597 15.0707 13.597H10.114V22.9518H15.0707Z" stroke="white" stroke-width="2" mask="url(#path-2-outside-1_0_41)"/>
<path d="M43.3732 18.8591C44.4392 17.2291 45.7717 15.9534 47.3706 15.0321C48.9695 14.0754 50.7461 13.597 52.7004 13.597V23.2176H50.1954C47.9213 23.2176 46.2158 23.7136 45.0788 24.7058C43.9418 25.6625 43.3732 27.3634 43.3732 29.8084V43.5748H34.2593V13.9159H43.3732V18.8591Z" stroke="white" stroke-width="2" mask="url(#path-2-outside-1_0_41)"/>
<path d="M61.6403 10.8331C60.0414 10.8331 58.7267 10.3725 57.6963 9.45118C56.7014 8.49444 56.2039 7.32509 56.2039 5.94314C56.2039 4.52575 56.7014 3.35641 57.6963 2.43511C58.7267 1.47837 60.0414 1 61.6403 1C63.2037 1 64.4829 1.47837 65.4778 2.43511C66.5082 3.35641 67.0234 4.52575 67.0234 5.94314C67.0234 7.32509 66.5082 8.49444 65.4778 9.45118C64.4829 10.3725 63.2037 10.8331 61.6403 10.8331ZM66.1707 13.9159V43.5748H57.0567V13.9159H66.1707Z" stroke="white" stroke-width="2" mask="url(#path-2-outside-1_0_41)"/>
<path d="M86.1533 35.0705L92.6024 13.9159H102.303L91.7496 43.5748H80.5037L69.9507 13.9159H79.7042L86.1533 35.0705Z" stroke="white" stroke-width="2" mask="url(#path-2-outside-1_0_41)"/>
<path d="M104.327 28.6922C104.327 25.6448 104.895 22.9695 106.032 20.6663C107.205 18.363 108.786 16.5913 110.776 15.3511C112.766 14.1108 114.986 13.4907 117.438 13.4907C119.534 13.4907 121.364 13.9159 122.928 14.7664C124.527 15.6168 125.753 16.733 126.605 18.115V13.9159H135.719V43.5748H126.605V39.3758C125.717 40.7577 124.473 41.8739 122.874 42.7244C121.311 43.5748 119.481 44 117.385 44C114.969 44 112.766 43.3799 110.776 42.1397C108.786 40.864 107.205 39.0746 106.032 36.7713C104.895 34.4326 104.327 31.7396 104.327 28.6922ZM126.605 28.7454C126.605 26.4775 125.966 24.6881 124.687 23.377C123.443 22.0659 121.915 21.4104 120.103 21.4104C118.291 21.4104 116.745 22.0659 115.466 23.377C114.222 24.6527 113.601 26.4244 113.601 28.6922C113.601 30.96 114.222 32.7672 115.466 34.1137C116.745 35.4248 118.291 36.0803 120.103 36.0803C121.915 36.0803 123.443 35.4248 124.687 34.1137C125.966 32.8026 126.605 31.0132 126.605 28.7454Z" stroke="white" stroke-width="2" mask="url(#path-2-outside-1_0_41)"/>
<path d="M158.889 35.8677V43.5748H154.252C150.947 43.5748 148.371 42.7775 146.523 41.1829C144.676 39.5529 143.752 36.9131 143.752 33.2633V21.4635H140.128V13.9159H143.752V6.68727H152.866V13.9159H158.835V21.4635H152.866V33.3696C152.866 34.2555 153.079 34.8933 153.505 35.2831C153.932 35.6729 154.642 35.8677 155.637 35.8677H158.889Z" stroke="white" stroke-width="2" mask="url(#path-2-outside-1_0_41)"/>
<path d="M192 28.267C192 29.1174 191.947 30.0033 191.84 30.9246H171.214C171.356 32.7672 171.942 34.1846 172.973 35.1768C174.039 36.1335 175.335 36.6119 176.863 36.6119C179.137 36.6119 180.719 35.6551 181.607 33.7417H191.307C190.81 35.6906 189.904 37.4446 188.589 39.0037C187.31 40.5628 185.693 41.7853 183.739 42.6712C181.785 43.5571 179.599 44 177.183 44C174.27 44 171.676 43.3799 169.402 42.1397C167.128 40.8995 165.351 39.1277 164.072 36.8245C162.793 34.5212 162.153 31.8282 162.153 28.7454C162.153 25.6625 162.775 22.9695 164.018 20.6663C165.298 18.363 167.074 16.5913 169.348 15.3511C171.622 14.1108 174.234 13.4907 177.183 13.4907C180.061 13.4907 182.62 14.0931 184.858 15.2979C187.097 16.5027 188.838 18.2213 190.081 20.4536C191.36 22.686 192 25.2905 192 28.267ZM182.673 25.8752C182.673 24.316 182.14 23.0758 181.074 22.1545C180.008 21.2332 178.675 20.7726 177.077 20.7726C175.549 20.7726 174.252 21.2155 173.186 22.1014C172.155 22.9872 171.516 24.2452 171.267 25.8752H182.673Z" stroke="white" stroke-width="2" mask="url(#path-2-outside-1_0_41)"/>
<defs>
<linearGradient id="paint0_linear_0_41" x1="-14.9058" y1="52" x2="73.3976" y2="193.231" gradientUnits="userSpaceOnUse">
<stop stop-color="#FF8031"/>
<stop offset="1" stop-color="#FF5D3C"/>
</linearGradient>
<linearGradient id="paint1_linear_0_41" x1="-14.9058" y1="52" x2="73.3976" y2="193.231" gradientUnits="userSpaceOnUse">
<stop stop-color="#FF8031"/>
<stop offset="1" stop-color="#FF5D3C"/>
</linearGradient>
<linearGradient id="paint2_linear_0_41" x1="-14.9058" y1="52" x2="73.3976" y2="193.231" gradientUnits="userSpaceOnUse">
<stop stop-color="#FF8031"/>
<stop offset="1" stop-color="#FF5D3C"/>
</linearGradient>
<linearGradient id="paint3_linear_0_41" x1="-14.9058" y1="52" x2="73.3976" y2="193.231" gradientUnits="userSpaceOnUse">
<stop stop-color="#FF8031"/>
<stop offset="1" stop-color="#FF5D3C"/>
</linearGradient>
<linearGradient id="paint4_linear_0_41" x1="-14.9058" y1="52" x2="73.3976" y2="193.231" gradientUnits="userSpaceOnUse">
<stop stop-color="#FF8031"/>
<stop offset="1" stop-color="#FF5D3C"/>
</linearGradient>
<linearGradient id="paint5_linear_0_41" x1="-14.9058" y1="52" x2="73.3976" y2="193.231" gradientUnits="userSpaceOnUse">
<stop stop-color="#FF8031"/>
<stop offset="1" stop-color="#FF5D3C"/>
</linearGradient>
<linearGradient id="paint6_linear_0_41" x1="-14.9058" y1="52" x2="73.3976" y2="193.231" gradientUnits="userSpaceOnUse">
<stop stop-color="#FF8031"/>
<stop offset="1" stop-color="#FF5D3C"/>
</linearGradient>
<linearGradient id="paint7_linear_0_41" x1="-14.9058" y1="52" x2="73.3976" y2="193.231" gradientUnits="userSpaceOnUse">
<stop stop-color="#FF8031"/>
<stop offset="1" stop-color="#FF5D3C"/>
</linearGradient>
<linearGradient id="paint8_linear_0_41" x1="-14.9058" y1="52" x2="73.3976" y2="193.231" gradientUnits="userSpaceOnUse">
<stop stop-color="#FF8031"/>
<stop offset="1" stop-color="#FF5D3C"/>
</linearGradient>
<linearGradient id="paint9_linear_0_41" x1="-14.9058" y1="52" x2="73.3976" y2="193.231" gradientUnits="userSpaceOnUse">
<stop stop-color="#FF8031"/>
<stop offset="1" stop-color="#FF5D3C"/>
</linearGradient>
<linearGradient id="paint10_linear_0_41" x1="-14.9058" y1="52" x2="73.3976" y2="193.231" gradientUnits="userSpaceOnUse">
<stop stop-color="#FF8031"/>
<stop offset="1" stop-color="#FF5D3C"/>
</linearGradient>
<linearGradient id="paint11_linear_0_41" x1="-14.9058" y1="52" x2="73.3976" y2="193.231" gradientUnits="userSpaceOnUse">
<stop stop-color="#FF8031"/>
<stop offset="1" stop-color="#FF5D3C"/>
</linearGradient>
<linearGradient id="paint12_linear_0_41" x1="-14.9058" y1="52" x2="73.3976" y2="193.231" gradientUnits="userSpaceOnUse">
<stop stop-color="#FF8031"/>
<stop offset="1" stop-color="#FF5D3C"/>
</linearGradient>
</defs>
</svg>
